{
  "accessors": [
    {
      "bufferView": 2,
      "componentType": 5126,
      "count": 17762,
      "max": [
        93.65179443359375,
        176.98028564453125,
        507.4186706542969
      ],
      "min": [
        -89.78773498535156,
        -60.011722564697266,
        224.6029815673828
      ],
      "type": "VEC3"
    },
    {
      "bufferView": 2,
      "byteOffset": 213144,
      "componentType": 5126,
      "count": 17762,
      "max": [
        1.0,
        0.9999792575836182,
        0.999997615814209
      ],
      "min": [
        -1.0,
        -0.999995231628418,
        -0.9999831318855286
      ],
      "type": "VEC3"
    },
    {
      "bufferView": 3,
      "componentType": 5126,
      "count": 17762,
      "max": [
        1.0,
        0.9999833703041077,
        0.9999986886978149,
        1.0
      ],
      "min": [
        -0.9999990463256836,
        -0.9999975562095642,
        -0.9999877214431763,
        -1.0
      ],
      "type": "VEC4"
    },
    {
      "bufferView": 1,
      "componentType": 5126,
      "count": 17762,
      "max": [
        0.997048020362854,
        0.9944679737091064
      ],
      "min": [
        0.0048699998296797276,
        0.004296999890357256
      ],
      "type": "VEC2"
    },
    {
      "bufferView": 0,
      "componentType": 5125,
      "count": 71832,
      "type": "SCALAR"
    },
    {
      "bufferView": 2,
      "byteOffset": 426288,
      "componentType": 5126,
      "count": 27056,
      "max": [
        202.538330078125,
        177.8826141357422,
        444.6067199707031
      ],
      "min": [
        -205.42294311523438,
        -101.67459869384766,
        -0.2536720037460327
      ],
      "type": "VEC3"
    },
    {
      "bufferView": 2,
      "byteOffset": 750960,
      "componentType": 5126,
      "count": 27056,
      "max": [
        1.0,
        1.0,
        1.0
      ],
      "min": [
        -1.0,
        -1.0,
        -1.0
      ],
      "type": "VEC3"
    },
    {
      "bufferView": 3,
      "byteOffset": 284192,
      "componentType": 5126,
      "count": 27056,
      "max": [
        0.999998927116394,
        0.9999984502792358,
        0.999995768070221,
        1.0
      ],
      "min": [
        -0.999998927116394,
        -0.9999980926513672,
        -0.9999999403953552,
        -1.0
      ],
      "type": "VEC4"
    },
    {
      "bufferView": 1,
      "byteOffset": 142096,
      "componentType": 5126,
      "count": 27056,
      "max": [
        0.9949309825897217,
        0.9906749725341797
      ],
      "min": [
        0.00518900016322732,
        0.0013620000099763274
      ],
      "type": "VEC2"
    },
    {
      "bufferView": 0,
      "byteOffset": 287328,
      "componentType": 5125,
      "count": 110886,
      "type": "SCALAR"
    },
    {
      "bufferView": 2,
      "byteOffset": 1075632,
      "componentType": 5126,
      "count": 28550,
      "max": [
        166.22830200195313,
        157.74659729003906,
        357.904541015625
      ],
      "min": [
        -150.66342163085938,
        -221.8338165283203,
        44.01959991455078
      ],
      "type": "VEC3"
    },
    {
      "bufferView": 2,
      "byteOffset": 1418232,
      "componentType": 5126,
      "count": 28550,
      "max": [
        1.0,
        0.9999997615814209,
        0.9999866485595703
      ],
      "min": [
        -1.0,
        -0.9999930262565613,
        -0.9999701380729675
      ],
      "type": "VEC3"
    },
    {
      "bufferView": 3,
      "byteOffset": 717088,
      "componentType": 5126,
      "count": 28550,
      "max": [
        1.0,
        0.9999883770942688,
        0.999995768070221,
        1.0
      ],
      "min": [
        -1.0,
        -0.9999898672103882,
        -0.9999822974205017,
        -1.0
      ],
      "type": "VEC4"
    },
    {
      "bufferView": 1,
      "byteOffset": 358544,
      "componentType": 5126,
      "count": 28550,
      "max": [
        1.5410770177841187,
        0.9982140064239502
      ],
      "min": [
        0.0022169998846948147,
        0.002157999901100993
      ],
      "type": "VEC2"
    },
    {
      "bufferView": 0,
      "byteOffset": 730872,
      "componentType": 5125,
      "count": 119988,
      "type": "SCALAR"
    },
    {
      "bufferView": 2,
      "byteOffset": 1760832,
      "componentType": 5126,
      "count": 39189,
      "max": [
        126.36327362060547,
        170.59144592285156,
        349.4737854003906
      ],
      "min": [
        -135.6068115234375,
        -171.28512573242188,
        142.0462188720703
      ],
      "type": "VEC3"
    },
    {
      "bufferView": 2,
      "byteOffset": 2231100,
      "componentType": 5126,
      "count": 39189,
      "max": [
        1.0,
        0.9999982118606567,
        0.9999996423721313
      ],
      "min": [
        -1.0,
        -0.9999997615814209,
        -0.999997079372406
      ],
      "type": "VEC3"
    },
    {
      "bufferView": 3,
      "byteOffset": 1173888,
      "componentType": 5126,
      "count": 39189,
      "max": [
        1.0,
        0.99996417760849,
        0.9999892711639404,
        1.0
      ],
      "min": [
        -1.0,
        -0.9999867677688599,
        -0.9999802708625793,
        -1.0
      ],
      "type": "VEC4"
    },
    {
      "bufferView": 1,
      "byteOffset": 586944,
      "componentType": 5126,
      "count": 39189,
      "max": [
        1.9977350234985352,
        0.9945679903030396
      ],
      "min": [
        0.0020959998946636915,
        0.002856000093743205
      ],
      "type": "VEC2"
    },
    {
      "bufferView": 0,
      "byteOffset": 1210824,
      "componentType": 5125,
      "count": 149562,
      "type": "SCALAR"
    }
  ],
  "asset": {
    "extras": {
      "author": "JohnMesplay (https://sketchfab.com/JohnMesplay)",
      "license": "CC-BY-4.0 (http://creativecommons.org/licenses/by/4.0/)",
      "source": "https://sketchfab.com/3d-models/kei-truck-scout-transport-0cb4b243a9dd4d1ca1ab30a17f23ac81",
      "title": "Kei Truck Scout Transport"
    },
    "generator": "Sketchfab-15.12.0",
    "version": "2.0"
  },
  "bufferViews": [
    {
      "buffer": 0,
      "byteLength": 1809072,
      "name": "floatBufferViews",
      "target": 34963
    },
    {
      "buffer": 0,
      "byteLength": 900456,
      "byteOffset": 1809072,
      "byteStride": 8,
      "name": "floatBufferViews",
      "target": 34962
    },
    {
      "buffer": 0,
      "byteLength": 2701368,
      "byteOffset": 2709528,
      "byteStride": 12,
      "name": "floatBufferViews",
      "target": 34962
    },
    {
      "buffer": 0,
      "byteLength": 1800912,
      "byteOffset": 5410896,
      "byteStride": 16,
      "name": "floatBufferViews",
      "target": 34962
    }
  ],
  "buffers": [
    {
      "byteLength": 7211808,
      "uri": "scene.bin"
    }
  ],
  "extensionsUsed": [
    "KHR_materials_emissive_strength",
    "KHR_materials_specular"
  ],
  "images": [
    {
      "uri": "textures/lambert4SG_baseColor.png"
    },
    {
      "uri": "textures/lambert4SG_metallicRoughness.png"
    },
    {
      "uri": "textures/lambert4SG_emissive.png"
    },
    {
      "uri": "textures/lambert4SG_normal.png"
    },
    {
      "uri": "textures/lambert5SG_baseColor.png"
    },
    {
      "uri": "textures/lambert5SG_metallicRoughness.png"
    },
    {
      "uri": "textures/lambert5SG_emissive.png"
    },
    {
      "uri": "textures/lambert5SG_normal.png"
    },
    {
      "uri": "textures/lambert6SG_baseColor.png"
    },
    {
      "uri": "textures/lambert6SG_metallicRoughness.png"
    },
    {
      "uri": "textures/lambert6SG_normal.png"
    },
    {
      "uri": "textures/lambert7SG_baseColor.png"
    },
    {
      "uri": "textures/lambert7SG_metallicRoughness.png"
    },
    {
      "uri": "textures/lambert7SG_emissive.png"
    },
    {
      "uri": "textures/lambert7SG_normal.png"
    }
  ],
  "materials": [
    {
      "doubleSided": true,
      "emissiveFactor": [
        1.0,
        1.0,
        1.0
      ],
      "emissiveTexture": {
        "index": 2
      },
      "extensions": {
        "KHR_materials_emissive_strength": {
          "emissiveStrength": 3.5809632943643255
        },
        "KHR_materials_specular": {
          "specularColorFactor": [
            1.0,
            1.0,
            1.0
          ],
          "specularFactor": 0.894478916507174
        }
      },
      "name": "lambert4SG",
      "normalTexture": {
        "index": 3
      },
      "occlusionTexture": {
        "index": 1
      },
      "pbrMetallicRoughness": {
        "baseColorTexture": {
          "index": 0
        },
        "metallicRoughnessTexture": {
          "index": 1
        }
      }
    },
    {
      "doubleSided": true,
      "emissiveFactor": [
        1.0,
        1.0,
        1.0
      ],
      "emissiveTexture": {
        "index": 6
      },
      "extensions": {
        "KHR_materials_emissive_strength": {
          "emissiveStrength": 4.921919762041179
        }
      },
      "name": "lambert5SG",
      "normalTexture": {
        "index": 7
      },
      "occlusionTexture": {
        "index": 5
      },
      "pbrMetallicRoughness": {
        "baseColorTexture": {
          "index": 4
        },
        "metallicRoughnessTexture": {
          "index": 5
        }
      }
    },
    {
      "doubleSided": true,
      "extensions": {
        "KHR_materials_specular": {
          "specularColorFactor": [
            1.0,
            1.0,
            1.0
          ],
          "specularFactor": 0.40685838280649994
        }
      },
      "name": "lambert6SG",
      "normalTexture": {
        "index": 10
      },
      "occlusionTexture": {
        "index": 9
      },
      "pbrMetallicRoughness": {
        "baseColorTexture": {
          "index": 8
        },
        "metallicRoughnessTexture": {
          "index": 9
        }
      }
    },
    {
      "alphaMode": "BLEND",
      "doubleSided": true,
      "emissiveFactor": [
        1.0,
        1.0,
        1.0
      ],
      "emissiveTexture": {
        "index": 13
      },
      "extensions": {
        "KHR_materials_emissive_strength": {
          "emissiveStrength": 3.3371530275139882
        },
        "KHR_materials_specular": {
          "specularColorFactor": [
            1.0,
            1.0,
            1.0
          ],
          "specularFactor": 0.26666747936755614
        }
      },
      "name": "lambert7SG",
      "normalTexture": {
        "index": 14
      },
      "occlusionTexture": {
        "index": 12
      },
      "pbrMetallicRoughness": {
        "baseColorTexture": {
          "index": 11
        },
        "metallicRoughnessTexture": {
          "index": 12
        }
      }
    }
  ],
  "meshes": [
    {
      "name": "Object_0",
      "primitives": [
        {
          "attributes": {
            "NORMAL": 1,
            "POSITION": 0,
            "TANGENT": 2,
            "TEXCOORD_0": 3
          },
          "indices": 4,
          "material": 0,
          "mode": 4
        }
      ]
    },
    {
      "name": "Object_1",
      "primitives": [
        {
          "attributes": {
            "NORMAL": 6,
            "POSITION": 5,
            "TANGENT": 7,
            "TEXCOORD_0": 8
          },
          "indices": 9,
          "material": 1,
          "mode": 4
        }
      ]
    },
    {
      "name": "Object_2",
      "primitives": [
        {
          "attributes": {
            "NORMAL": 11,
            "POSITION": 10,
            "TANGENT": 12,
            "TEXCOORD_0": 13
          },
          "indices": 14,
          "material": 2,
          "mode": 4
        }
      ]
    },
    {
      "name": "Object_3",
      "primitives": [
        {
          "attributes": {
            "NORMAL": 16,
            "POSITION": 15,
            "TANGENT": 17,
            "TEXCOORD_0": 18
          },
          "indices": 19,
          "material": 3,
          "mode": 4
        }
      ]
    }
  ],
  "nodes": [
    {
      "children": [
        1
      ],
      "matrix": [
        1.0,
        0.0,
        0.0,
        0.0,
        0.0,
        2.220446049250313e-16,
        -1.0,
        0.0,
        0.0,
        1.0,
        2.220446049250313e-16,
        0.0,
        0.0,
        0.0,
        0.0,
        1.0
      ],
      "name": "Sketchfab_model"
    },
    {
      "children": [
        2,
        3,
        4,
        5
      ],
      "name": "KeiTruckPosed.obj.cleaner.materialmerger.gles"
    },
    {
      "mesh": 0,
      "name": "Object_2"
    },
    {
      "mesh": 1,
      "name": "Object_3"
    },
    {
      "mesh": 2,
      "name": "Object_4"
    },
    {
      "mesh": 3,
      "name": "Object_5"
    }
  ],
  "samplers": [
    {
      "magFilter": 9729,
      "minFilter": 9987,
      "wrapS": 10497,
      "wrapT": 10497
    }
  ],
  "scene": 0,
  "scenes": [
    {
      "name": "Sketchfab_Scene",
      "nodes": [
        0
      ]
    }
  ],
  "textures": [
    {
      "sampler": 0,
      "source": 0
    },
    {
      "sampler": 0,
      "source": 1
    },
    {
      "sampler": 0,
      "source": 2
    },
    {
      "sampler": 0,
      "source": 3
    },
    {
      "sampler": 0,
      "source": 4
    },
    {
      "sampler": 0,
      "source": 5
    },
    {
      "sampler": 0,
      "source": 6
    },
    {
      "sampler": 0,
      "source": 7
    },
    {
      "sampler": 0,
      "source": 8
    },
    {
      "sampler": 0,
      "source": 9
    },
    {
      "sampler": 0,
      "source": 10
    },
    {
      "sampler": 0,
      "source": 11
    },
    {
      "sampler": 0,
      "source": 12
    },
    {
      "sampler": 0,
      "source": 13
    },
    {
      "sampler": 0,
      "source": 14
    }
  ]
}
